<?xml version="1.0" encoding="iso-8859-1"?>
<!-- Generator: Adobe Illustrator 19.0.0, SVG Export Plug-In . SVG Version: 6.00 Build 0)  -->
<svg version="1.1" id="Capa_1" xmlns="http://www.w3.org/2000/svg" xmlns:xlink="http://www.w3.org/1999/xlink" x="0px" y="0px"
	 viewBox="0 0 398.96 398.96" style="enable-background:new 0 0 398.96 398.96;" xml:space="preserve">
<g>
	<g>
		<path d="M297.88,268.84h-12l0.16-123.92c0-3.159-2.561-5.72-5.72-5.72h-28c-3.159,0-5.72,2.561-5.72,5.72v124h-21.08v-83.44
			c0-3.159-2.561-5.72-5.72-5.72h-28c-3.159,0-5.72,2.561-5.72,5.72v83.4h-21.04v-40c0.112-3.157-2.357-5.807-5.514-5.919
			c-0.015-0.001-0.03-0.001-0.046-0.001h-28c-3.159,0-5.72,2.561-5.72,5.72v40h-18.8V123.32c0-3.17-2.57-5.74-5.74-5.74
			s-5.74,2.57-5.74,5.74V274.6c0,3.159,2.561,5.72,5.72,5.72h196.68c3.17,0,5.74-2.57,5.74-5.74S301.05,268.84,297.88,268.84z
			 M137.08,268.92v-34.4h16.44l0.04,34.4H137.08z M197.6,268.92v-77.68h16.44l0.04,77.68H197.6z M258.12,268.92V150.68h16.44
			l0.04,118.24H258.12z"/>
	</g>
</g>
<g>
	<g>
		<path d="M272.96,1.76c-1.048-1.093-2.486-1.726-4-1.76H77.44C59.432,0.044,44.844,14.632,44.8,32.64v334.88
			c0.687,17.538,15.089,31.411,32.64,31.44h244c18.008-0.044,32.596-14.632,32.64-32.64V85.88l0.08-0.08v-0.2v-0.56v-0.28v-0.4
			v-0.28v-0.52v-0.6L272.96,1.76z M272.88,18.44l61.72,61.68h-44.96c-9.247-0.022-16.738-7.513-16.76-16.76V18.44z M342.68,366.44
			c-0.044,11.668-9.492,21.116-21.16,21.16h-244c-11.668-0.044-21.116-9.492-21.16-21.16V31.52
			c0.044-11.668,9.492-21.116,21.16-21.16h184V63.4c0.044,15.556,12.644,28.156,28.2,28.2h52.96V366.44z"/>
	</g>
</g>
<g>
</g>
<g>
</g>
<g>
</g>
<g>
</g>
<g>
</g>
<g>
</g>
<g>
</g>
<g>
</g>
<g>
</g>
<g>
</g>
<g>
</g>
<g>
</g>
<g>
</g>
<g>
</g>
<g>
</g>
</svg>
